<svg width="35" height="34" viewBox="0 0 35 34" fill="none" xmlns="http://www.w3.org/2000/svg">
<path d="M17.5 0.416626C15.2566 0.416626 13.0352 0.8585 10.9625 1.71702C8.88987 2.57554 7.00661 3.83388 5.42028 5.42022C2.21653 8.62396 0.416687 12.9692 0.416687 17.5C0.416687 25.0508 5.3196 31.457 12.1017 33.7291C12.9559 33.8658 13.2292 33.3362 13.2292 32.875V29.9879C8.4971 31.0129 7.48919 27.6987 7.48919 27.6987C6.70335 25.717 5.59294 25.1875 5.59294 25.1875C4.03835 24.1283 5.71252 24.1625 5.71252 24.1625C7.42085 24.282 8.32627 25.922 8.32627 25.922C9.81252 28.5187 12.3238 27.75 13.2975 27.34C13.4513 26.2295 13.8954 25.4779 14.3738 25.0508C10.5813 24.6237 6.60085 23.1545 6.60085 16.6458C6.60085 14.7495 7.25002 13.2291 8.36044 12.0162C8.1896 11.5891 7.59169 9.81246 8.53127 7.50621C8.53127 7.50621 9.96627 7.04496 13.2292 9.24871C14.5788 8.87288 16.0479 8.68496 17.5 8.68496C18.9521 8.68496 20.4213 8.87288 21.7709 9.24871C25.0338 7.04496 26.4688 7.50621 26.4688 7.50621C27.4084 9.81246 26.8104 11.5891 26.6396 12.0162C27.75 13.2291 28.3992 14.7495 28.3992 16.6458C28.3992 23.1716 24.4017 24.6066 20.5921 25.0337C21.2071 25.5633 21.7709 26.6054 21.7709 28.1941V32.875C21.7709 33.3362 22.0442 33.8829 22.9154 33.7291C29.6975 31.44 34.5834 25.0508 34.5834 17.5C34.5834 15.2565 34.1415 13.0351 33.283 10.9624C32.4244 8.8898 31.1661 7.00655 29.5798 5.42022C27.9934 3.83388 26.1102 2.57554 24.0375 1.71702C21.9649 0.8585 19.7434 0.416626 17.5 0.416626Z" fill="white"/>
</svg>
