<svg width="42" height="42" viewBox="0 0 42 42" fill="none" xmlns="http://www.w3.org/2000/svg">
<g clip-path="url(#clip0_14_35)">
<g filter="url(#filter0_d_14_35)">
<path fill-rule="evenodd" clip-rule="evenodd" d="M5.25 19.25C5.25 12.6508 5.25 9.35025 7.301 7.301C9.352 5.25175 12.6508 5.25 19.25 5.25H22.75C29.3492 5.25 32.6497 5.25 34.699 7.301C36.7482 9.352 36.75 12.6508 36.75 19.25V22.75C36.75 29.3492 36.75 32.6497 34.699 34.699C32.648 36.7482 29.3492 36.75 22.75 36.75H19.25C12.6508 36.75 9.35025 36.75 7.301 34.699C5.25175 32.648 5.25 29.3492 5.25 22.75V19.25ZM31.5 13.125C31.5 13.8212 31.2234 14.4889 30.7312 14.9812C30.2389 15.4734 29.5712 15.75 28.875 15.75C28.1788 15.75 27.5111 15.4734 27.0188 14.9812C26.5266 14.4889 26.25 13.8212 26.25 13.125C26.25 12.4288 26.5266 11.7611 27.0188 11.2688C27.5111 10.7766 28.1788 10.5 28.875 10.5C29.5712 10.5 30.2389 10.7766 30.7312 11.2688C31.2234 11.7611 31.5 12.4288 31.5 13.125ZM24.5 22.75C24.5 23.6783 24.1313 24.5685 23.4749 25.2249C22.8185 25.8813 21.9283 26.25 21 26.25C20.0717 26.25 19.1815 25.8813 18.5251 25.2249C17.8687 24.5685 17.5 23.6783 17.5 22.75C17.5 21.8217 17.8687 20.9315 18.5251 20.2751C19.1815 19.6187 20.0717 19.25 21 19.25C21.9283 19.25 22.8185 19.6187 23.4749 20.2751C24.1313 20.9315 24.5 21.8217 24.5 22.75ZM28 22.75C28 24.6065 27.2625 26.387 25.9497 27.6997C24.637 29.0125 22.8565 29.75 21 29.75C19.1435 29.75 17.363 29.0125 16.0503 27.6997C14.7375 26.387 14 24.6065 14 22.75C14 20.8935 14.7375 19.113 16.0503 17.8003C17.363 16.4875 19.1435 15.75 21 15.75C22.8565 15.75 24.637 16.4875 25.9497 17.8003C27.2625 19.113 28 20.8935 28 22.75Z" fill="white"/>
</g>
</g>
<defs>
<filter id="filter0_d_14_35" x="1.25" y="5.25" width="39.5" height="39.5" filterUnits="userSpaceOnUse" color-interpolation-filters="sRGB">
<feFlood flood-opacity="0" result="BackgroundImageFix"/>
<feColorMatrix in="SourceAlpha" type="matrix" values="0 0 0 0 0 0 0 0 0 0 0 0 0 0 0 0 0 0 127 0" result="hardAlpha"/>
<feOffset dy="4"/>
<feGaussianBlur stdDeviation="2"/>
<feComposite in2="hardAlpha" operator="out"/>
<feColorMatrix type="matrix" values="0 0 0 0 0 0 0 0 0 0 0 0 0 0 0 0 0 0 0.25 0"/>
<feBlend mode="normal" in2="BackgroundImageFix" result="effect1_dropShadow_14_35"/>
<feBlend mode="normal" in="SourceGraphic" in2="effect1_dropShadow_14_35" result="shape"/>
</filter>
<clipPath id="clip0_14_35">
<rect width="42" height="42" fill="white"/>
</clipPath>
</defs>
</svg>
