<svg width="40" height="40" viewBox="0 0 40 40" fill="none" xmlns="http://www.w3.org/2000/svg">
<path d="M11.5667 8.33329C11.5663 9.21735 11.2146 10.065 10.5892 10.6898C9.96377 11.3146 9.11575 11.6654 8.23169 11.665C7.34764 11.6645 6.49997 11.3129 5.87516 10.6875C5.25035 10.062 4.89958 9.21401 4.90002 8.32996C4.90047 7.4459 5.25208 6.59823 5.87751 5.97342C6.50295 5.34861 7.35097 4.99785 8.23502 4.99829C9.11908 4.99873 9.96675 5.35035 10.5916 5.97578C11.2164 6.60121 11.5671 7.44924 11.5667 8.33329ZM11.6667 14.1333H5.00002V35H11.6667V14.1333ZM22.2 14.1333H15.5667V35H22.1334V24.05C22.1334 17.95 30.0834 17.3833 30.0834 24.05V35H36.6667V21.7833C36.6667 11.5 24.9 11.8833 22.1334 16.9333L22.2 14.1333Z" fill="white"/>
</svg>
