<svg width="82" height="65" viewBox="0 0 82 65" fill="none" xmlns="http://www.w3.org/2000/svg">
<path d="M5.616 32.22H10.8V14.58H4.68C4.656 14.58 4.644 14.592 4.644 14.616C4.644 14.616 4.632 14.616 4.608 14.616C4.608 14.616 4.608 14.628 4.608 14.652V20.16H0.828V8.82H4.608V10.8H20.988V8.82H24.768V20.16H20.988V14.652C20.988 14.628 20.976 14.616 20.952 14.616C20.952 14.592 20.94 14.58 20.916 14.58H14.76V32.22H19.944V36H5.616V32.22ZM26.2786 32.58H29.6266V21.42H26.2786V18H33.0466V32.58H36.3586V36H26.2786V32.58ZM27.5746 9.18H33.6226L30.7786 15.66H30.3826L27.5746 9.18Z" fill="white"/>
<path d="M43.8981 36.396C42.1461 36.396 40.7421 35.916 39.6861 34.956C38.6541 33.996 38.1381 32.736 38.1381 31.176C38.1381 29.256 38.9541 27.84 40.5861 26.928C42.2421 25.992 44.4141 25.476 47.1021 25.38C47.9661 25.356 48.7101 25.272 49.3341 25.128C49.9581 24.96 50.4261 24.756 50.7381 24.516C51.0741 24.252 51.2421 23.964 51.2421 23.652C51.2421 22.716 50.8581 21.972 50.0901 21.42C49.3461 20.868 48.4101 20.592 47.2821 20.592C46.5621 20.592 45.8541 20.7 45.1581 20.916C44.4861 21.108 43.9221 21.42 43.4661 21.852C43.0341 22.284 42.8181 22.836 42.8181 23.508V24.444H39.5421V17.208H42.7461V19.332C43.0821 19.02 43.4781 18.756 43.9341 18.54C44.4861 18.252 45.0861 18.036 45.7341 17.892C46.4061 17.724 47.1021 17.64 47.8221 17.64C50.0061 17.64 51.7341 18.276 53.0061 19.548C54.2781 20.82 54.9141 22.548 54.9141 24.732V32.58H57.4701V36H51.5301V32.832C50.8341 33.912 49.7901 34.776 48.3981 35.424C47.0301 36.072 45.5301 36.396 43.8981 36.396ZM45.0501 33.3C46.2021 33.3 47.2701 33.048 48.2541 32.544C49.2621 32.016 50.0541 31.332 50.6301 30.492C51.2061 29.652 51.4941 28.752 51.4941 27.792V27C51.1821 27.264 50.7141 27.468 50.0901 27.612C49.4661 27.756 48.6261 27.876 47.5701 27.972C45.5781 28.116 44.1141 28.416 43.1781 28.872C42.2421 29.328 41.7741 30.012 41.7741 30.924C41.7741 31.692 42.0621 32.28 42.6381 32.688C43.2141 33.096 44.0181 33.3 45.0501 33.3Z" fill="#FF3600"/>
<path d="M37.72 54.58H40.708V43.42H37.72V40H43.804V42.412C44.428 41.548 45.244 40.876 46.252 40.396C47.26 39.892 48.388 39.64 49.636 39.64C51.172 39.64 52.504 39.988 53.632 40.684C54.784 41.356 55.66 42.328 56.26 43.6C56.884 44.872 57.196 46.348 57.196 48.028V54.58H59.788V58H50.644V54.58H53.74V48.496C53.74 46.84 53.296 45.52 52.408 44.536C51.544 43.552 50.38 43.06 48.916 43.06C48.028 43.06 47.212 43.3 46.468 43.78C45.748 44.26 45.172 44.92 44.74 45.76C44.332 46.576 44.128 47.488 44.128 48.496V54.58H47.224V58H37.72V54.58Z" fill="white"/>
<path d="M67.2223 58.396C65.4703 58.396 64.0663 57.916 63.0103 56.956C61.9783 55.996 61.4623 54.736 61.4623 53.176C61.4623 51.256 62.2783 49.84 63.9103 48.928C65.5663 47.992 67.7383 47.476 70.4263 47.38C71.2903 47.356 72.0343 47.272 72.6583 47.128C73.2823 46.96 73.7503 46.756 74.0623 46.516C74.3983 46.252 74.5663 45.964 74.5663 45.652C74.5663 44.716 74.1823 43.972 73.4143 43.42C72.6703 42.868 71.7343 42.592 70.6063 42.592C69.8863 42.592 69.1783 42.7 68.4823 42.916C67.8103 43.108 67.2463 43.42 66.7903 43.852C66.3583 44.284 66.1423 44.836 66.1423 45.508V46.444H62.8663V39.208H66.0703V41.332C66.4063 41.02 66.8023 40.756 67.2583 40.54C67.8103 40.252 68.4103 40.036 69.0583 39.892C69.7303 39.724 70.4263 39.64 71.1463 39.64C73.3303 39.64 75.0583 40.276 76.3303 41.548C77.6023 42.82 78.2383 44.548 78.2383 46.732V54.58H80.7943V58H74.8543V54.832C74.1583 55.912 73.1143 56.776 71.7223 57.424C70.3543 58.072 68.8543 58.396 67.2223 58.396ZM68.3743 55.3C69.5263 55.3 70.5943 55.048 71.5783 54.544C72.5863 54.016 73.3783 53.332 73.9543 52.492C74.5303 51.652 74.8183 50.752 74.8183 49.792V49C74.5063 49.264 74.0383 49.468 73.4143 49.612C72.7903 49.756 71.9503 49.876 70.8943 49.972C68.9023 50.116 67.4383 50.416 66.5023 50.872C65.5663 51.328 65.0983 52.012 65.0983 52.924C65.0983 53.692 65.3863 54.28 65.9623 54.688C66.5383 55.096 67.3423 55.3 68.3743 55.3Z" fill="#FF3600"/>
</svg>
